<?xml version="1.0" encoding="UTF-8" standalone="no"?>
<svg
   xmlns:dc="http://purl.org/dc/elements/1.1/"
   xmlns:cc="http://creativecommons.org/ns#"
   xmlns:rdf="http://www.w3.org/1999/02/22-rdf-syntax-ns#"
   xmlns:svg="http://www.w3.org/2000/svg"
   xmlns="http://www.w3.org/2000/svg"
   xmlns:sodipodi="http://sodipodi.sourceforge.net/DTD/sodipodi-0.dtd"
   xmlns:inkscape="http://www.inkscape.org/namespaces/inkscape"
   width="210mm"
   height="297mm"
   viewBox="0 0 210 297"
   version="1.1"
   id="svg8"
   inkscape:version="1.0.1 (c497b03c, 2020-09-10)"
   sodipodi:docname="icon2.svg"
   inkscape:export-filename="/Users/robert/bitmap.png"
   inkscape:export-xdpi="100.00049"
   inkscape:export-ydpi="100.00049">
  <defs
     id="defs2" />
  <sodipodi:namedview
     id="base"
     pagecolor="#ffffff"
     bordercolor="#666666"
     borderopacity="1.0"
     inkscape:pageopacity="0.0"
     inkscape:pageshadow="2"
     inkscape:zoom="0.068096375"
     inkscape:cx="3307.4712"
     inkscape:cy="4027.1403"
     inkscape:document-units="mm"
     inkscape:current-layer="layer1"
     inkscape:document-rotation="0"
     showgrid="false"
     inkscape:window-width="1252"
     inkscape:window-height="755"
     inkscape:window-x="0"
     inkscape:window-y="23"
     inkscape:window-maximized="0" />
  <metadata
     id="metadata5">
    <rdf:RDF>
      <cc:Work
         rdf:about="">
        <dc:format>image/svg+xml</dc:format>
        <dc:type
           rdf:resource="http://purl.org/dc/dcmitype/StillImage" />
        <dc:title />
      </cc:Work>
    </rdf:RDF>
  </metadata>
  <g
     inkscape:label="Layer 1"
     inkscape:groupmode="layer"
     id="layer1">
    <rect
       style="fill:#ffffff;stroke:#060207;stroke-width:0.499999;stroke-opacity:0.90688252"
       id="rect833"
       width="2048"
       height="2048"
       x="0.24999949"
       y="0.24999949" />
    <path
       style="fill:#f5f7ff;fill-opacity:1;stroke:#060207;stroke-width:0.499999;stroke-opacity:0.906883"
       id="path1523"
       d="m 784.78723,1071.9272 c 1.73106,0.1955 9.30082,0.9815 10.71774,1.4465 11.0136,3.6148 18.47517,15.4592 25.5932,23.8226 16.7499,22.4035 26.83367,48.4566 35.04433,74.9349 7.32623,27.854 12.96784,56.0622 16.28804,84.6665 2.26039,21.6467 2.47237,43.4216 2.23774,65.1613 -0.0702,14.2612 -3.86382,27.9791 -6.09817,41.9565 0,0 50.531,-24.7494 50.531,-24.7494 v 0 c 2.23705,-14.0953 5.2502,-28.119 5.04735,-42.4848 -0.702,-21.6812 -1.5603,-43.3877 -3.98696,-64.9564 -3.85278,-28.7625 -9.83014,-57.1581 -17.30652,-85.2005 -8.49297,-27.1299 -18.52497,-53.9066 -34.76242,-77.4998 -7.04699,-8.8802 -16.05661,-22.5985 -26.32794,-27.9002 -1.43513,-0.7408 -7.80606,-1.7321 -9.79726,-2.0726 0,0 -47.18013,32.8754 -47.18013,32.8754 z" />
    <path
       style="fill:#f5f7ff;fill-opacity:1;stroke:#060207;stroke-width:0.499999;stroke-opacity:0.906883"
       id="path1521"
       d="m 1223.807,1040.838 c -8.9041,10.2391 -16.9224,21.1805 -25.8826,31.3714 -14.5586,17.3666 -28.7547,34.9913 -43.5329,52.1743 -10.7976,14.659 -21.791,29.36 -30.1453,45.6024 -3.3171,6.4491 -8.3757,18.1314 -11.3307,24.8067 -8.8194,18.5471 -14.9794,38.0648 -17.7926,58.3862 -1.9957,13.0961 0.234,25.9754 2.6874,38.7978 1.4264,7.8766 2.2452,15.837 2.8256,23.8138 0,0 50.1973,-26.2374 50.1973,-26.2374 v 0 c -1.0873,-7.9757 -2.12,-15.9595 -3.4802,-23.8952 -1.8885,-12.257 -4.1526,-24.6449 -2.2613,-37.0612 2.8242,-19.5266 8.4193,-38.361 16.8449,-56.2514 11.0645,-24.7933 24.4764,-48.2524 42.2047,-68.9843 15.1037,-17.282 29.4407,-35.176 44.4555,-52.5304 9.5591,-10.926 19.1955,-21.9882 27.6889,-33.7357 0,0 -52.4787,23.743 -52.4787,23.743 z" />
    <path
       style="fill:#0f08ff;fill-opacity:1;stroke:#060207;stroke-width:0.499999;stroke-opacity:0.906883"
       id="path1517"
       d="m 541.64687,213.53712 c 5.22798,27.1426 -1.09384,54.84293 -3.17362,81.96605 -0.93417,12.18303 -1.36351,24.39953 -2.04526,36.59929 -1.08619,96.87044 -8.10368,193.49772 -12.6778,290.2291 -1.15284,69.46826 3.26803,143.75873 30.82544,208.58014 4.73736,11.14343 11.05379,21.54732 16.5807,32.32099 27.12762,47.02858 67.18397,83.39032 107.31357,118.97979 23.60734,21.81882 50.131,39.91082 76.57949,58.00042 10.84326,7.527 21.1823,15.9132 27.96558,27.3715 0.36486,1.6266 1.04735,3.2134 1.09458,4.8797 0.38629,13.6309 -7.61767,29.2778 -14.28668,40.2453 -12.29204,20.2147 -26.37705,36.6701 -41.08198,55.2117 -42.5237,51.0644 -80.77843,105.6319 -125.28947,155.0573 -7.16365,7.9546 -14.76782,15.501 -22.15174,23.2516 -12.19999,15.2662 -21.89339,24.8889 -29.15004,43.1828 -9.12265,22.9981 -8.60465,49.1876 -9.83496,73.4162 -0.45336,8.9276 -0.94321,17.8533 -1.41481,26.78 -3.29734,57.0719 -10.13415,113.7357 -19.59679,170.0832 -1.5241,8.5879 -3.14235,17.1597 -4.57234,25.7639 -2.20186,13.2483 -7.25337,47.5651 -9.42284,60.0543 -5.67571,32.6741 -12.84415,65.0609 -18.74565,97.697 -6.11291,33.4556 -10.44464,70.0953 8.8469,100.6167 14.77004,23.3678 26.01814,27.9463 48.57694,44.3454 13.73717,5.8319 27.11842,12.5859 41.2115,17.4956 84.23013,29.344 176.55238,31.2847 264.73136,32.3175 62.45233,-0.1578 124.85487,-2.9132 187.28505,-4.1631 82.798,-1.6577 -7.0916,0.9422 76.1924,-1.6904 48.171,-2.6042 96.0382,-8.9697 144.2488,-10.9913 20.9412,-0.8782 44.043,-0.9232 64.9489,-1.1246 56.4109,-1.7352 113.5351,0.7652 169.5603,-7.627 8.5536,-1.2812 16.9653,-3.3771 25.448,-5.0657 7.3183,-2.5685 14.8276,-4.6467 21.9549,-7.7056 20.4643,-8.783 74.1027,-44.9852 76.5848,-46.8566 11.3235,-8.5375 19.3605,-34.702 23.3423,-47.7061 0.7961,-6.5474 1.9766,-13.0594 2.3881,-19.6421 1.7503,-27.9975 -2.1835,-55.9696 -6.8221,-83.4991 -4.3555,-25.85 -9.6148,-51.5396 -14.3927,-77.3148 -10.0372,-58.4226 -19.3743,-117.0431 -33.1253,-174.7462 -7.4441,-31.2375 -14.158,-54.1245 -22.7477,-84.7943 -24.5916,-66.5787 -70.7039,-112.2757 -120.4625,-160.3004 -27.5938,-26.2198 -56.0291,-51.7717 -81.0639,-80.5308 -11.6261,-13.3556 -21.0932,-26.1498 -31.8248,-40.1619 -23.076,-33.0155 -45.2262,-66.8733 -63.0748,-103.0349 -4.9653,-12.6223 -16.1756,-27.347 -11.4567,-41.7997 2.7899,-8.5448 8.4433,-12.966 14.4151,-19.3121 32.6478,-25.63437 68.7619,-46.28761 102.5847,-70.32371 20.8282,-16.7218 42.571,-34.41221 53.3852,-59.66145 6.6846,-15.60724 8.7277,-29.4417 12.2722,-46.02065 0.6105,-9.2706 1.7446,-18.52154 1.8317,-27.81183 0.046,-4.94784 -2.7964,-71.53182 -2.8943,-73.65074 -2.0174,-43.68086 -4.6833,-87.32824 -6.8868,-131 -3.9552,-79.85667 -0.5558,-159.91424 4.6647,-239.63423 4.4116,-55.06024 9.4907,-110.08233 12.6095,-165.23554 0.2757,-21.81975 4.9348,-43.61385 4.5646,-65.46138 -0.085,-4.99897 0.1601,-10.22635 -1.5718,-14.91649 -4.1163,-11.14746 -12.1456,-15.10812 -20.9981,-21.76225 -5.9859,-2.39344 -11.8277,-5.184626 -17.9577,-7.180314 -49.4539,-16.100303 -104.6169,-18.763488 -156.0664,-22.170123 -85.6444,-1.599766 -171.3187,-1.990121 -256.9214,1.321097 -68.11867,2.050407 -135.65224,11.842297 -203.22553,19.969556 -40.05672,4.894644 -80.01169,10.581684 -120.24735,13.822534 -15.03426,0.94417 -7.93766,0.74022 -21.2847,0.76792 0,0 -44.5135,32.42613 -44.5135,32.42613 v 0 c 14.38677,-0.31779 6.81789,0.0584 22.69908,-1.27098 41.56276,-4.29663 82.77331,-11.10884 124.19505,-16.53425 68.50872,-9.22855 136.95478,-19.77798 206.12737,-22.63624 85.31908,-3.087331 170.81898,-5.431437 256.14348,-1.35792 56.037,4.15526 113.6896,9.14534 165.9166,31.44891 7.4092,5.31832 15.0387,9.05934 18.7378,18.10181 1.7437,4.2626 1.8908,9.04186 2.2349,13.63445 1.6035,21.40245 -1.6866,43.00109 -2.7091,64.31666 -1.6506,24.7735 -2.4416,49.56608 -3.9973,74.34288 -1.8708,29.79433 -4.8199,59.52902 -5.5687,89.39048 -3.8201,79.50512 -5.233,159.21172 -1.8512,238.76039 2.445,43.81932 4.9154,87.61643 5.6021,131.50879 0.3087,19.73001 0.4405,54.59251 -0.8092,74.95429 -0.5647,9.20015 -1.9111,18.33563 -2.8666,27.50341 -4.9794,19.17489 -6.1586,28.00025 -14.7861,45.52495 -11.7818,23.93193 -32.5817,41.25971 -53.2598,57.21842 -19.0387,13.38757 -17.3229,12.43833 -36.9963,25.22585 -23.0668,14.99327 -47.3546,28.53207 -67.6772,47.31167 -6.8599,8.5155 -11.4829,12.069 -13.8518,22.98 -3.456,15.9186 7.6328,30.2935 14.2833,43.5932 19.7206,35.5114 42.4498,69.3729 66.1489,102.3287 16.8173,20.9485 33.8387,41.6195 52.447,61.0321 11.8617,12.3745 28.3548,27.9646 40.8148,39.7171 7.0381,6.6385 14.1313,13.2184 21.1969,19.8276 30.1614,28.3575 61.801,56.7097 86.406,90.2501 20.8593,28.4343 21.2738,33.5605 36.3787,65.8904 4.1422,13.1695 8.6646,26.2254 12.4266,39.5085 20.3483,71.8488 31.3625,145.9937 43.1353,219.5889 9.2734,59.8307 23.0325,121.6079 10.6809,181.9281 -4.33,12.8868 -5.6882,19.6463 -13.2506,31.1898 -3.1822,4.8574 -16.7501,13.7998 -10.9484,13.5507 11.0511,-0.4745 19.3839,-10.9767 29.9134,-14.3651 14.242,-4.583 -56.3659,29.8001 -40.4569,19.437 -8.7045,2.0485 -17.3135,4.5561 -26.1134,6.1453 -56.0027,10.1138 -113.5213,7.7755 -170.1168,8.7288 -25.2436,-0.075 -39.8715,-0.4547 -64.9555,0.7741 -48.6864,2.3849 -96.931,9.9579 -145.6281,12.1848 -25.6863,0.8579 -51.3828,1.4019 -77.0673,2.3147 -63.5298,2.2577 -127.00147,6.4424 -190.59418,6.8044 -18.1783,-0.093 -36.36499,0.2794 -54.53491,-0.2803 -68.44837,-2.1083 -141.6904,-8.1431 -206.27623,-32.6384 -13.21869,-5.0134 -25.56023,-12.0891 -38.34034,-18.1337 -21.89994,-17.2336 -30.45011,-20.3396 -44.29213,-43.9136 -17.39789,-29.63 -14.46961,-64.6352 -9.69258,-97.0304 10.46477,-61.5969 24.52105,-122.5354 34.17146,-184.2867 8.78443,-56.5534 14.95166,-113.447 19.38489,-170.5086 0.68172,-9.0551 1.44994,-18.104 2.04514,-27.1651 1.58039,-24.0583 1.59753,-48.7438 11.03895,-71.4666 7.22762,-17.3949 15.93451,-26.355 27.49082,-41.1844 50.74647,-57.4002 97.02768,-118.4466 145.42053,-177.8017 12.12431,-15.0066 34.22403,-41.5813 45.08261,-57.988 8.30834,-12.5535 18.36812,-30.1215 17.52661,-46.1544 -0.11988,-2.2838 -1.1422,-4.429 -1.71328,-6.6435 -7.94052,-11.8031 -18.49125,-21.3609 -30.92455,-28.3639 -13.25155,-8.188 -6.3195,-4.0323 -20.82242,-12.42309 -20.62017,-12.70746 -39.89853,-27.48145 -58.46072,-43.00106 -40.60283,-34.52109 -81.62793,-69.45159 -110.25759,-115.10825 -5.62411,-10.47544 -11.9938,-20.58355 -16.87229,-31.42628 -29.02487,-64.50949 -33.45167,-136.54461 -31.62025,-206.21699 2.65218,-97.07451 6.21046,-194.16366 14.63572,-290.9384 1.59017,-12.57369 2.97362,-25.17523 4.77046,-37.72103 4.11509,-28.73187 10.9287,-57.21656 10.48139,-86.42897 0,0 -51.25024,26.11329 -51.25024,26.11329 z" />
    <path
       style="fill:#f5f7ff;fill-opacity:1;stroke:#060207;stroke-width:0.499999;stroke-opacity:0.906883"
       id="path1519"
       d="m 1351.9799,702.89898 c 2.07,-0.12996 -17.5798,10.97973 -13.2033,8.20536 11.832,-7.50064 25.0108,-13.0911 35.7716,-22.06124 3.5904,-2.99302 -8.9212,3.02683 -13.5661,3.55073 -14.696,1.65759 -19.9331,-1.30799 -34.474,-5.12524 -35.7337,-10.60098 -73.0103,-15.81812 -110.2948,-15.24466 -18.0602,0.27779 -35.2088,2.27978 -53.1496,4.00391 -28.7745,2.77085 -57.3177,9.50545 -86.3788,8.41703 -15.9743,-0.59827 -21.5701,-2.18654 -37.2554,-5.02639 -27.3337,-7.82569 -52.65494,-21.2942 -80.62171,-27.16332 -20.43769,-4.28905 -24.57241,-3.42259 -45.16541,-3.83172 -7.137,0.96607 -14.42336,1.1539 -21.41101,2.89825 -6.71245,1.67563 -13.33256,4.02862 -19.43031,7.29705 -21.07761,11.2977 -41.60671,23.61893 -61.88832,36.29017 -5.78974,3.61722 -10.79029,8.36625 -16.2175,12.50756 -18.74758,14.3056 -13.19898,10.14394 -31.96897,23.23399 9.74897,-5.73442 19.85246,-10.90477 29.24688,-17.20323 4.20029,-2.81609 -8.95384,4.72726 -13.60363,6.71526 -18.66508,7.98025 -36.29398,10.54065 -56.36545,11.23883 -28.22028,-0.58168 -55.89199,-7.21148 -83.34227,-13.26583 -12.87627,-2.81141 -6.52897,-1.63047 -19.03331,-3.58884 0,0 -45.10529,31.89351 -45.10529,31.89351 v 0 c 12.62002,1.28553 6.17313,0.36261 19.32763,2.85851 12.63727,2.51565 25.32914,4.66566 38.0066,6.97084 5.66359,1.02984 26.11871,4.82965 31.73397,5.53455 5.00194,0.62789 10.04927,0.81706 15.07389,1.22561 12.24338,-0.0994 16.73847,0.33901 28.93407,-1.69527 38.53243,-6.42736 70.72018,-30.49148 103.59601,-49.80672 25.29856,-18.20527 5.01192,-3.43461 31.45301,-23.20282 5.39096,-4.03046 22.8138,-13.40017 16.22567,-12.02045 -9.81106,2.05473 -18.52525,8.13046 -26.52056,14.17648 -11.11655,8.40626 49.97405,-27.66877 40.0204,-12.10585 20.78567,-0.20743 23.79631,-1.28214 44.43352,2.74947 28.04075,5.47793 53.00188,19.29366 79.94988,28.08886 15.67381,3.11851 21.94841,4.96493 37.98761,5.75701 29.8045,1.47188 59.0015,-6.00107 88.4263,-9.33275 15.7366,-1.7076 37.6061,-4.3711 53.3777,-4.889 36.33,-1.19293 72.8648,3.07271 107.0597,15.77065 13.8713,4.91141 20.0184,8.64431 34.6139,8.36843 24.7215,-0.46726 60.533,-27.5372 71.8888,-33.90583 3.0085,-1.68725 5.9144,-3.61778 8.5025,-5.89806 2.0419,-1.79899 3.5128,-4.15719 5.2692,-6.23578 0,0 -51.9031,23.85094 -51.9031,23.85094 z" />
    <path
       style="fill:#0f6eff;fill-opacity:1;stroke:#060207;stroke-width:0.499999;stroke-opacity:0.906883"
       id="path1525"
       d="m 555.37861,1855.8634 c 3.30925,1.4007 6.48682,3.1662 9.92778,4.2019 31.3772,9.4441 68.54592,9.9083 100.76677,6.3489 11.41963,-1.2616 22.69188,-3.616 34.03783,-5.424 41.23256,-7.7266 79.67382,-24.6213 119.32213,-37.5088 23.04531,-7.4907 27.29907,-8.0188 50.41463,-13.5008 33.90652,-7.1967 67.7304,-2.5513 99.19692,11.6201 6.37866,2.8727 12.47148,6.342 18.70721,9.5131 30.25792,17.0876 61.77832,31.4323 95.56112,39.9684 23.9011,6.0393 37.2997,7.5432 61.653,11.337 72.3445,6.8737 144.0865,-9.0469 213.5241,-27.7736 27.5935,-7.85 55.1247,-16.2266 81.7937,-26.8718 16.135,-6.4405 31.7763,-13.9048 47.9919,-20.1713 15.9076,-4.8186 32.3978,-7.3791 48.7555,-3.8439 0,0 46.6742,-32.4057 46.6742,-32.4057 v 0 c -18.0114,-3.9445 -35.9137,-1.3266 -53.6136,3.4658 -17.549,6.6682 -33.1464,14.5353 -50.2806,21.9402 -27.4682,11.871 -55.9393,21.3127 -84.6333,29.711 -68.5825,18.8688 -139.3405,35.2118 -210.9515,28.3334 -24.8534,-3.7995 -36.3546,-4.8921 -60.634,-11.2215 -33.0698,-8.6208 -63.5896,-23.2439 -92.8903,-40.6153 -6.2497,-3.3599 -12.3485,-7.0169 -18.7492,-10.0795 -32.23414,-15.4232 -67.30508,-20.8528 -102.41296,-13.1787 -20.48865,4.8422 -31.04367,6.9091 -51.27496,13.4722 -40.18565,13.0363 -78.57191,31.8057 -120.45452,39.4963 -11.00907,1.7635 -21.94158,4.0998 -33.02725,5.2904 -29.78417,3.199 -65.09374,2.5818 -93.58355,-8.2155 -2.88448,-1.0932 -5.4179,-2.9509 -8.12686,-4.4263 0,0 -47.69419,30.538 -47.69419,30.538 z" />
    <path
       style="fill:#0fd9ff;fill-opacity:1;stroke:#060207;stroke-width:0.499999;stroke-opacity:0.906883"
       id="path1527"
       d="m 565.40926,1653.04 c 25.05429,8.7834 52.40999,6.9426 78.33503,3.9204 10.19767,-1.1888 20.38736,-2.5878 30.45425,-4.6037 10.05906,-2.0143 19.90341,-4.9823 29.85511,-7.4734 42.83525,-14.5603 80.10403,-40.4611 119.13399,-62.727 5.57408,-3.1799 -22.64783,11.3389 -16.33416,10.19 10.15585,-1.8481 18.76396,-8.6408 28.38442,-12.3828 9.3431,-3.6342 18.97234,-6.4849 28.4585,-9.7274 9.62679,-2.175 19.12088,-5.0558 28.88036,-6.525 45.78556,-6.8924 93.23493,0.449 137.28454,13.3888 12.0435,3.5378 23.7419,8.1592 35.6129,12.2389 44.6047,17.8178 88.0989,39.5368 135.4454,49.4679 29.49,6.1857 36.9782,5.0942 66.7927,5.968 36.805,-1.5556 73.857,-5.7328 108.9681,-17.3991 15.953,-5.3006 23.3464,-9.1762 38.375,-16.0839 25.1243,-10.3631 49.0306,-27.7179 76.7758,-30.3833 3.1852,-0.306 6.3997,-0.01 9.5996,-0.015 2.5859,0.4469 5.1719,0.8937 7.7578,1.3406 0,0 45.5204,-31.7843 45.5204,-31.7843 v 0 c -2.9325,-0.6015 -5.865,-1.2029 -8.7975,-1.8044 -10.0875,-0.2081 -13.432,-0.8426 -23.8331,1.5825 -23.6806,5.5213 -44.4477,19.5543 -66.6156,28.8863 -14.3948,6.9998 -23.8495,12.0293 -39.0748,17.5833 -35.3506,12.8955 -72.9156,17.734 -110.2683,20.294 -29.6336,-0.3526 -37.1659,0.8575 -66.5717,-4.7691 -47.6386,-9.1154 -91.3876,-30.6738 -136.0497,-48.595 -11.882,-4.2544 -23.5602,-9.128 -35.6461,-12.763 -11.8527,-3.5648 -23.9894,-6.1225 -36.072,-8.8068 -12.1461,-2.6985 -24.2682,-5.6718 -36.5984,-7.338 -31.20318,-4.2166 -62.93008,-2.3792 -93.29404,5.8295 -17.37952,5.7539 -40.7326,12.7182 -57.0793,21.2144 -22.89511,11.8999 -45.00689,25.2509 -67.41123,38.0508 -5.86237,3.3492 23.686,-12.9741 17.78283,-9.6973 -32.48721,18.0334 -18.32848,10.983 -52.83176,25.4411 -9.83266,2.6059 -19.54009,5.7411 -29.498,7.8177 -30.64406,6.3904 -69.39833,10.7995 -99.28415,-1.1696 0,0 -48.15689,30.8343 -48.15689,30.8343 z" />
    <path
       style="fill:#ebe1ff;fill-opacity:1;stroke:#060207;stroke-width:0.499999;stroke-opacity:0.906883"
       id="path1529"
       d="m 606.09037,1482.3766 c 4.71742,1.0162 9.36273,2.4591 14.15222,3.0485 19.42553,2.3905 41.82282,2.2533 61.0222,1.8191 26.79372,-0.6058 44.14428,-1.6284 70.57676,-5.8103 10.71319,-1.6949 21.2775,-4.2248 31.91624,-6.3372 28.95288,-7.7099 57.41638,-17.1751 85.10598,-28.6239 17.49592,-7.234 34.54903,-15.5337 51.95877,-22.9776 37.31903,-12.0424 77.04674,-16.4167 116.18546,-15.9069 9.3399,0.1216 18.6651,0.7807 27.9977,1.1711 51.2453,3.7714 99.7412,21.7026 149.531,32.8363 10.0285,2.2426 20.1581,4.0062 30.2372,6.0093 49.0401,8.2954 99.075,8.1555 148.2612,1.4882 12.3205,-1.8997 23.9767,-6.1621 35.5972,-10.4632 0,0 43.104,-33.857 43.104,-33.857 v 0 c -11.9787,4.986 -23.9624,10.0474 -36.7089,12.8087 -49.854,8.7326 -100.6028,10.8488 -150.7386,2.4532 -10.0813,-1.9006 -20.2205,-3.5155 -30.2437,-5.7019 -49.8245,-10.8679 -98.0608,-29.2842 -149.1315,-34.2458 -9.2288,-0.5961 -18.4428,-1.4997 -27.6863,-1.7884 -38.608,-1.2059 -77.71027,2.7748 -115.07145,12.5469 -18.43905,7.8126 -36.13711,17.0049 -54.45731,25.0709 -27.89332,12.2808 -56.68788,22.3688 -86.07176,30.4563 -10.75968,2.3598 -21.42792,5.1842 -32.27906,7.0796 -39.26954,6.8592 -85.30648,9.7813 -124.627,1.4422 -3.91449,-0.8302 -7.5591,-2.6287 -11.33864,-3.9431 0,0 -47.29171,31.425 -47.29171,31.425 z" />
  </g>
</svg>
